<svg width="127" height="41" viewBox="0 0 127 41" fill="none" xmlns="http://www.w3.org/2000/svg">
<g clip-path="url(#clip0_72_919)">
<path d="M43.447 40.9944L67.1838 40.9866L61.2873 31.0252L45.9827 28.0381L43.447 40.9944Z" fill="#E6FAFF"/>
<path d="M19.6713 40.7944L43.4413 41L46.0589 27.8707L46.9348 23.4667L31.5878 20.1926L19.6713 40.7944Z" fill="#CCCCCC"/>
<path d="M43.4098 0L31.5852 20.2413L46.9445 23.4328L49.5078 10.6078L43.4098 0Z" fill="#FFFF00"/>
<path d="M61.4423 31.2221L49.6177 10.6721L49.5862 10.6178L46.0388 28.0511L61.4423 31.2221Z" fill="#29ABE2"/>
<path d="M0 14.9631V40.5314H3.94985V29.4928H14.3047V26.1887H3.94985V18.2672H16.1603V14.9631H0Z" fill="#06B3DB"/>
<mask id="mask0_72_919" style="mask-type:luminance" maskUnits="userSpaceOnUse" x="0" y="0" width="127" height="41">
<path d="M127 0H0V40.9996H127V0Z" fill="white"/>
</mask>
<g mask="url(#mask0_72_919)">
<path d="M75.9143 37.242L78.2332 34.5401C80.2108 36.4405 82.8419 37.5239 85.5938 37.5712C88.8543 37.5712 90.6644 36.0817 90.6644 34.0236C90.6644 31.5238 88.7812 30.8309 86.2319 29.7592L82.597 28.1776C79.9693 27.1477 77.081 25.2574 77.081 21.4921C77.081 17.5076 80.6941 14.4927 85.7791 14.4927C88.7942 14.4732 91.6978 15.6237 93.8706 17.6989L91.8315 20.2009C90.121 18.6898 87.8988 17.8757 85.6096 17.9215C82.8991 17.9215 81.0773 19.1666 81.0773 21.2586C81.0773 23.4758 83.3003 24.2884 85.5689 25.1618L89.0624 26.6895C92.2922 27.9389 94.7066 29.8075 94.7066 33.5437C94.7066 37.6477 91.2166 40.9978 85.3783 40.9978C81.8511 41.0167 78.4557 39.6684 75.9147 37.2399" fill="#06B3DB"/>
<path d="M114.736 18.2671H106.422V14.963H127V18.2671H118.686V40.5308H114.736V18.2671Z" fill="#06B3DB"/>
</g>
</g>
<defs>
<clipPath id="clip0_72_919">
<rect width="127" height="41" fill="white"/>
</clipPath>
</defs>
</svg>
